<?xml version="1.0" standalone="no"?>
<!DOCTYPE svg PUBLIC "-//W3C//DTD SVG 20010904//EN"
 "http://www.w3.org/TR/2001/REC-SVG-20010904/DTD/svg10.dtd">
<svg version="1.0" xmlns="http://www.w3.org/2000/svg"
 width="192.000000pt" height="192.000000pt" viewBox="0 0 192.000000 192.000000"
 preserveAspectRatio="xMidYMid meet">

<g transform="translate(0.000000,192.000000) scale(0.100000,-0.100000)"
fill="#000000" stroke="none">
<path d="M0 960 l0 -960 960 0 960 0 0 960 0 960 -960 0 -960 0 0 -960z m763
519 c20 -5 37 -15 37 -22 0 -7 -14 -77 -31 -157 -16 -80 -36 -172 -43 -205
-12 -60 -12 -60 -47 -59 -58 2 -89 13 -89 32 0 17 76 386 85 410 5 15 37 15
88 1z m-122 -51 c3 -4 -9 -74 -26 -156 l-31 -147 -34 3 c-19 1 -39 7 -43 11
-9 9 35 244 53 288 8 19 14 22 42 16 18 -3 36 -10 39 -15z m333 -51 c14 -11
17 -21 11 -46 -6 -28 -11 -32 -33 -29 -21 2 -28 9 -30 31 -6 54 14 71 52 44z
m-86 -10 c6 -6 13 -24 17 -38 6 -24 4 -25 -29 -21 -24 3 -37 10 -41 24 -12 35
30 63 53 35z m436 -8 c6 -5 4 -40 -6 -91 -41 -206 -70 -334 -77 -341 -12 -12
-98 2 -111 18 -7 8 2 69 30 206 54 258 42 233 104 225 28 -4 55 -11 60 -17z
m-267 -5 c3 -9 -2 -42 -11 -75 -9 -32 -16 -69 -16 -83 0 -29 -22 -50 -37 -35
-6 6 -7 26 -2 52 4 23 8 65 9 93 0 28 3 54 7 57 12 13 44 7 50 -9z m-535 -9
c3 -3 1 -26 -5 -50 -8 -33 -15 -45 -29 -45 -19 0 -24 32 -12 78 6 20 33 30 46
17z m617 -47 c22 -36 8 -55 -16 -22 -12 17 -13 17 -13 -4 0 -32 -39 -104 -53
-99 -17 5 -11 52 18 145 8 23 43 12 64 -20z m-313 -2 c7 -18 -17 -65 -47 -91
-18 -16 -21 -17 -17 -4 4 9 10 37 13 63 6 36 11 46 26 46 11 0 22 -6 25 -14z
m154 -21 c16 -10 -1 -33 -35 -49 -26 -13 -40 -14 -61 -6 -28 11 -28 11 -9 -9
18 -21 18 -21 -14 -21 -21 0 -30 -4 -25 -11 4 -6 20 -8 39 -5 31 6 33 5 28
-16 -4 -18 -3 -20 6 -12 12 11 75 4 88 -10 7 -6 -6 -34 -33 -76 -9 -14 0 -8
19 13 34 37 38 39 79 32 66 -11 70 -16 48 -52 -13 -22 -32 -36 -62 -45 -37
-10 -40 -13 -17 -16 l26 -3 -43 -222 c-54 -276 -52 -267 -68 -267 -22 0 -24
19 -9 88 14 69 12 82 -17 82 -19 0 -29 -31 -61 -198 -12 -62 -30 -85 -50 -65
-6 6 8 90 37 227 31 143 44 220 37 227 -22 22 -39 -4 -57 -87 -19 -87 -29
-105 -49 -85 -11 11 -5 55 35 244 l21 99 39 -4 c34 -3 37 -2 22 9 -10 7 -26
13 -36 13 -10 0 -22 8 -25 18 -4 9 -17 31 -30 48 -27 36 -29 66 -7 85 8 7 25
30 36 52 l20 40 60 -7 c33 -3 64 -8 68 -11z m433 -5 c9 -8 -39 -262 -55 -293
-6 -13 -16 -16 -36 -11 -15 4 -31 11 -37 16 -8 7 38 275 52 301 5 9 63 -1 76
-13z m-269 -26 c19 -7 19 -17 5 -85 l-11 -51 -49 6 c-70 9 -82 15 -68 32 6 8
22 14 35 14 19 0 29 10 46 45 12 25 23 45 24 45 1 0 9 -3 18 -6z m-174 -50 c0
-20 -4 -25 -22 -22 -30 4 -33 23 -6 36 13 6 24 11 26 11 1 1 2 -11 2 -25z
m486 -49 c3 -8 1 -30 -6 -50 -8 -25 -17 -35 -32 -35 -18 0 -20 4 -14 38 3 20
6 43 6 50 0 17 39 15 46 -3z m-674 -554 c-3 -51 -18 -84 -35 -78 -13 4 -14 56
-3 101 5 19 12 26 24 24 13 -3 16 -13 14 -47z"/>
</g>
</svg>
