<?xml version="1.0" standalone="no"?>
<!DOCTYPE svg PUBLIC "-//W3C//DTD SVG 20010904//EN"
 "http://www.w3.org/TR/2001/REC-SVG-20010904/DTD/svg10.dtd">
<svg version="1.0" xmlns="http://www.w3.org/2000/svg"
 width="139.000000pt" height="50.000000pt" viewBox="0 0 139.000000 50.000000"
 preserveAspectRatio="xMidYMid meet">

<g transform="translate(0.000000,50.000000) scale(0.100000,-0.100000)"
fill="#000000" stroke="none">
<path d="M930 250 l0 -210 215 0 215 0 0 210 0 210 -215 0 -215 0 0 -210z
m256 135 c4 -8 16 -15 29 -15 27 0 59 -34 52 -54 -4 -10 2 -20 13 -26 24 -13
28 -68 5 -76 -9 -4 -15 -19 -15 -35 0 -32 -37 -63 -64 -53 -11 4 -16 1 -16
-10 0 -12 -10 -16 -37 -16 -53 0 -83 10 -83 26 0 8 -8 14 -17 14 -26 0 -53 55
-53 104 0 48 24 104 49 114 9 3 18 9 21 12 23 30 107 41 116 15z"/>
<path d="M1150 361 c0 -11 8 -22 18 -25 65 -21 87 -115 36 -155 -15 -12 -33
-21 -40 -21 -9 0 -14 -11 -14 -27 1 -27 1 -27 16 -8 8 11 25 20 37 20 35 2 47
13 47 46 0 17 6 32 15 35 8 4 15 14 15 24 0 10 -7 20 -15 24 -9 3 -15 18 -15
36 0 16 -3 31 -7 31 -5 1 -19 3 -32 4 -14 1 -30 10 -36 19 -16 21 -25 20 -25
-3z"/>
<path d="M1095 363 c-66 -15 -95 -143 -43 -193 29 -28 63 -50 78 -50 23 0 8
41 -25 66 -47 35 -49 83 -5 124 27 25 41 62 23 59 -5 -1 -17 -4 -28 -6z"/>
<path d="M1113 295 c-30 -21 -29 -41 0 -47 16 -3 34 4 52 19 31 27 30 29 -5
38 -16 3 -34 0 -47 -10z"/>
<path d="M1170 235 c-28 -29 -37 -31 -62 -8 -18 16 -25 8 -10 -13 17 -26 46
-33 74 -18 15 8 28 19 28 23 0 5 3 16 6 25 9 24 -9 19 -36 -9z"/>
<path d="M215 390 c-16 -11 -38 -34 -47 -52 -20 -36 -24 -112 -8 -153 14 -37
59 -75 88 -75 l25 0 -24 26 c-22 23 -24 34 -24 119 0 90 1 95 29 124 26 27 27
31 10 31 -10 0 -32 -9 -49 -20z"/>
<path d="M316 403 c-2 -2 12 -19 30 -39 20 -21 34 -46 34 -61 0 -15 5 -23 13
-20 8 2 12 24 12 62 l0 59 -43 1 c-23 1 -44 0 -46 -2z"/>
<path d="M440 402 c0 -5 11 -14 24 -20 14 -6 30 -28 40 -54 9 -24 31 -83 49
-133 18 -49 37 -89 42 -88 6 1 14 18 20 38 8 31 4 50 -19 114 -16 42 -33 93
-38 114 -10 37 -11 37 -64 37 -30 0 -54 -4 -54 -8z"/>
<path d="M678 278 c-3 -127 -4 -133 -25 -143 -13 -5 -23 -15 -23 -22 0 -9 21
-13 75 -13 57 0 75 3 75 14 0 7 -9 16 -20 19 -19 5 -20 14 -20 125 0 112 1
121 20 127 37 12 21 25 -30 25 l-49 0 -3 -132z"/>
<path d="M290 260 c0 -5 5 -10 10 -10 17 0 50 -39 50 -59 0 -11 -11 -33 -25
-49 -32 -39 -32 -42 8 -32 17 5 41 8 52 7 18 -2 20 5 23 76 l3 77 -61 0 c-33
0 -60 -4 -60 -10z"/>
<path d="M460 210 c0 -37 -5 -55 -20 -70 -32 -32 -24 -40 35 -40 59 0 72 14
35 38 -13 8 -20 23 -20 45 0 41 -10 77 -21 77 -5 0 -9 -22 -9 -50z"/>
</g>
</svg>
